<mxfile host="diagrams.rz.rptu.de" agent="Mozilla/5.0 (X11; Linux x86_64) AppleWebKit/537.36 (KHTML, like Gecko) Chrome/136.0.0.0 Safari/537.36" version="27.0.9">
  <diagram id="C5RBs43oDa-KdzZeNtuy" name="Page-1">
    <mxGraphModel dx="1426" dy="799" grid="1" gridSize="10" guides="1" tooltips="1" connect="1" arrows="1" fold="1" page="1" pageScale="1" pageWidth="1654" pageHeight="1169" math="0" shadow="0">
      <root>
        <mxCell id="WIyWlLk6GJQsqaUBKTNV-0" />
        <mxCell id="WIyWlLk6GJQsqaUBKTNV-1" parent="WIyWlLk6GJQsqaUBKTNV-0" />
        <mxCell id="irWSJl4s53do8Npioh1H-127" value="" style="ellipse;whiteSpace=wrap;html=1;aspect=fixed;" parent="WIyWlLk6GJQsqaUBKTNV-1" vertex="1">
          <mxGeometry x="1420" y="680" width="40" height="40" as="geometry" />
        </mxCell>
        <mxCell id="irWSJl4s53do8Npioh1H-128" value="Exec" style="text;html=1;align=center;verticalAlign=middle;whiteSpace=wrap;rounded=0;" parent="WIyWlLk6GJQsqaUBKTNV-1" vertex="1">
          <mxGeometry x="1410" y="687.5" width="60" height="25" as="geometry" />
        </mxCell>
        <mxCell id="irWSJl4s53do8Npioh1H-130" value="All other indirect Instructions." style="text;html=1;align=left;verticalAlign=middle;whiteSpace=wrap;rounded=0;" parent="WIyWlLk6GJQsqaUBKTNV-1" vertex="1">
          <mxGeometry x="1350" y="600" width="130" height="120" as="geometry" />
        </mxCell>
        <mxCell id="irWSJl4s53do8Npioh1H-83" value="" style="ellipse;whiteSpace=wrap;html=1;aspect=fixed;" parent="WIyWlLk6GJQsqaUBKTNV-1" vertex="1">
          <mxGeometry x="980" y="600" width="40" height="40" as="geometry" />
        </mxCell>
        <mxCell id="WIyWlLk6GJQsqaUBKTNV-3" value="Get next Instruction" style="rounded=0;whiteSpace=wrap;html=1;fontSize=12;glass=0;strokeWidth=1;shadow=0;" parent="WIyWlLk6GJQsqaUBKTNV-1" vertex="1">
          <mxGeometry x="220" y="160" width="120" height="40" as="geometry" />
        </mxCell>
        <mxCell id="WIyWlLk6GJQsqaUBKTNV-4" value="No" style="rounded=0;html=1;jettySize=auto;orthogonalLoop=1;fontSize=11;endArrow=block;endFill=0;endSize=8;strokeWidth=1;shadow=0;labelBackgroundColor=none;edgeStyle=orthogonalEdgeStyle;exitX=0.5;exitY=1;exitDx=0;exitDy=0;entryX=0.5;entryY=0;entryDx=0;entryDy=0;" parent="WIyWlLk6GJQsqaUBKTNV-1" source="WIyWlLk6GJQsqaUBKTNV-6" target="irWSJl4s53do8Npioh1H-12" edge="1">
          <mxGeometry x="-0.5062" y="10" relative="1" as="geometry">
            <mxPoint as="offset" />
            <mxPoint x="280" y="300" as="sourcePoint" />
            <mxPoint x="280" y="320" as="targetPoint" />
          </mxGeometry>
        </mxCell>
        <mxCell id="WIyWlLk6GJQsqaUBKTNV-5" value="Yes" style="edgeStyle=orthogonalEdgeStyle;rounded=0;html=1;jettySize=auto;orthogonalLoop=1;fontSize=11;endArrow=block;endFill=0;endSize=8;strokeWidth=1;shadow=0;labelBackgroundColor=none;" parent="WIyWlLk6GJQsqaUBKTNV-1" source="WIyWlLk6GJQsqaUBKTNV-6" target="WIyWlLk6GJQsqaUBKTNV-7" edge="1">
          <mxGeometry x="-0.6" y="10" relative="1" as="geometry">
            <mxPoint as="offset" />
          </mxGeometry>
        </mxCell>
        <mxCell id="WIyWlLk6GJQsqaUBKTNV-6" value="&lt;font style=&quot;font-size: 10px;&quot;&gt;PINT &amp;amp; IIE&lt;/font&gt;" style="rhombus;whiteSpace=wrap;html=1;shadow=0;fontFamily=Helvetica;fontSize=12;align=center;strokeWidth=1;spacing=6;spacingTop=-4;" parent="WIyWlLk6GJQsqaUBKTNV-1" vertex="1">
          <mxGeometry x="230" y="200" width="100" height="40" as="geometry" />
        </mxCell>
        <mxCell id="WIyWlLk6GJQsqaUBKTNV-7" value="&lt;font style=&quot;font-size: 10px;&quot;&gt;MA=0, IE=0, Opcode=JMS&lt;/font&gt;" style="rounded=1;whiteSpace=wrap;html=1;fontSize=12;glass=0;strokeWidth=1;shadow=0;" parent="WIyWlLk6GJQsqaUBKTNV-1" vertex="1">
          <mxGeometry x="380" y="200" width="120" height="40" as="geometry" />
        </mxCell>
        <mxCell id="WIyWlLk6GJQsqaUBKTNV-10" value="&lt;font style=&quot;font-size: 10px;&quot;&gt;CYCOMP&lt;/font&gt;" style="rhombus;whiteSpace=wrap;html=1;shadow=0;fontFamily=Helvetica;fontSize=12;align=center;strokeWidth=1;spacing=6;spacingTop=-4;" parent="WIyWlLk6GJQsqaUBKTNV-1" vertex="1">
          <mxGeometry x="230" y="400" width="100" height="40" as="geometry" />
        </mxCell>
        <mxCell id="irWSJl4s53do8Npioh1H-0" value="" style="ellipse;whiteSpace=wrap;html=1;aspect=fixed;" parent="WIyWlLk6GJQsqaUBKTNV-1" vertex="1">
          <mxGeometry x="260" y="80" width="40" height="40" as="geometry" />
        </mxCell>
        <mxCell id="irWSJl4s53do8Npioh1H-2" value="" style="endArrow=block;html=1;rounded=0;exitX=0.5;exitY=1;exitDx=0;exitDy=0;entryX=0.5;entryY=0;entryDx=0;entryDy=0;endFill=0;endSize=8;" parent="WIyWlLk6GJQsqaUBKTNV-1" source="irWSJl4s53do8Npioh1H-0" target="WIyWlLk6GJQsqaUBKTNV-3" edge="1">
          <mxGeometry width="50" height="50" relative="1" as="geometry">
            <mxPoint x="250" y="230" as="sourcePoint" />
            <mxPoint x="160" y="310" as="targetPoint" />
          </mxGeometry>
        </mxCell>
        <mxCell id="irWSJl4s53do8Npioh1H-3" value="Fetch" style="text;html=1;align=center;verticalAlign=middle;whiteSpace=wrap;rounded=0;" parent="WIyWlLk6GJQsqaUBKTNV-1" vertex="1">
          <mxGeometry x="250" y="85" width="60" height="30" as="geometry" />
        </mxCell>
        <mxCell id="irWSJl4s53do8Npioh1H-4" value="0000" style="text;html=1;align=center;verticalAlign=middle;whiteSpace=wrap;rounded=0;" parent="WIyWlLk6GJQsqaUBKTNV-1" vertex="1">
          <mxGeometry x="300" y="140" width="60" height="30" as="geometry" />
        </mxCell>
        <mxCell id="irWSJl4s53do8Npioh1H-7" value="A0" style="text;html=1;align=center;verticalAlign=middle;whiteSpace=wrap;rounded=0;" parent="WIyWlLk6GJQsqaUBKTNV-1" vertex="1">
          <mxGeometry x="360" y="180" width="60" height="30" as="geometry" />
        </mxCell>
        <mxCell id="irWSJl4s53do8Npioh1H-8" value="" style="ellipse;whiteSpace=wrap;html=1;aspect=fixed;" parent="WIyWlLk6GJQsqaUBKTNV-1" vertex="1">
          <mxGeometry x="540" y="200" width="40" height="40" as="geometry" />
        </mxCell>
        <mxCell id="irWSJl4s53do8Npioh1H-9" value="Exec" style="text;html=1;align=center;verticalAlign=middle;whiteSpace=wrap;rounded=0;" parent="WIyWlLk6GJQsqaUBKTNV-1" vertex="1">
          <mxGeometry x="530" y="205" width="60" height="30" as="geometry" />
        </mxCell>
        <mxCell id="irWSJl4s53do8Npioh1H-11" value="" style="endArrow=block;html=1;rounded=0;exitX=1;exitY=0.5;exitDx=0;exitDy=0;endFill=0;endSize=8;" parent="WIyWlLk6GJQsqaUBKTNV-1" source="WIyWlLk6GJQsqaUBKTNV-7" edge="1">
          <mxGeometry width="50" height="50" relative="1" as="geometry">
            <mxPoint x="250" y="260" as="sourcePoint" />
            <mxPoint x="540" y="220" as="targetPoint" />
          </mxGeometry>
        </mxCell>
        <mxCell id="irWSJl4s53do8Npioh1H-12" value="&lt;font style=&quot;font-size: 10px;&quot;&gt;MUX=PC, ALU=A, MA(L), MB(L), READ&lt;/font&gt;" style="rounded=1;whiteSpace=wrap;html=1;fontSize=12;glass=0;strokeWidth=1;shadow=0;" parent="WIyWlLk6GJQsqaUBKTNV-1" vertex="1">
          <mxGeometry x="220" y="280" width="120" height="40" as="geometry" />
        </mxCell>
        <mxCell id="irWSJl4s53do8Npioh1H-15" value="F0" style="text;html=1;align=center;verticalAlign=middle;whiteSpace=wrap;rounded=0;" parent="WIyWlLk6GJQsqaUBKTNV-1" vertex="1">
          <mxGeometry x="200" y="260" width="60" height="30" as="geometry" />
        </mxCell>
        <mxCell id="irWSJl4s53do8Npioh1H-16" value="F1" style="text;html=1;align=center;verticalAlign=middle;whiteSpace=wrap;rounded=0;" parent="WIyWlLk6GJQsqaUBKTNV-1" vertex="1">
          <mxGeometry x="200" y="460" width="60" height="30" as="geometry" />
        </mxCell>
        <mxCell id="irWSJl4s53do8Npioh1H-18" value="0001" style="text;html=1;align=center;verticalAlign=middle;whiteSpace=wrap;rounded=0;" parent="WIyWlLk6GJQsqaUBKTNV-1" vertex="1">
          <mxGeometry x="300" y="340" width="60" height="30" as="geometry" />
        </mxCell>
        <mxCell id="irWSJl4s53do8Npioh1H-19" value="Load into IR" style="rounded=0;whiteSpace=wrap;html=1;fontSize=12;glass=0;strokeWidth=1;shadow=0;" parent="WIyWlLk6GJQsqaUBKTNV-1" vertex="1">
          <mxGeometry x="220" y="360" width="120" height="40" as="geometry" />
        </mxCell>
        <mxCell id="irWSJl4s53do8Npioh1H-21" value="" style="endArrow=block;html=1;rounded=0;exitX=0.5;exitY=1;exitDx=0;exitDy=0;entryX=0.5;entryY=0;entryDx=0;entryDy=0;endFill=0;endSize=8;" parent="WIyWlLk6GJQsqaUBKTNV-1" source="irWSJl4s53do8Npioh1H-12" target="irWSJl4s53do8Npioh1H-19" edge="1">
          <mxGeometry width="50" height="50" relative="1" as="geometry">
            <mxPoint x="370" y="380" as="sourcePoint" />
            <mxPoint x="370" y="420" as="targetPoint" />
          </mxGeometry>
        </mxCell>
        <mxCell id="irWSJl4s53do8Npioh1H-42" value="" style="edgeStyle=orthogonalEdgeStyle;rounded=0;orthogonalLoop=1;jettySize=auto;html=1;" parent="WIyWlLk6GJQsqaUBKTNV-1" source="irWSJl4s53do8Npioh1H-24" target="irWSJl4s53do8Npioh1H-32" edge="1">
          <mxGeometry relative="1" as="geometry" />
        </mxCell>
        <mxCell id="irWSJl4s53do8Npioh1H-24" value="&lt;font style=&quot;font-size: 10px;&quot;&gt;MUX=Mem, ALU=A, IR(L)&lt;/font&gt;" style="rounded=1;whiteSpace=wrap;html=1;fontSize=12;glass=0;strokeWidth=1;shadow=0;" parent="WIyWlLk6GJQsqaUBKTNV-1" vertex="1">
          <mxGeometry x="220" y="480" width="120" height="40" as="geometry" />
        </mxCell>
        <mxCell id="irWSJl4s53do8Npioh1H-27" value="Yes" style="rounded=0;html=1;jettySize=auto;orthogonalLoop=1;fontSize=11;endArrow=block;endFill=0;endSize=8;strokeWidth=1;shadow=0;labelBackgroundColor=none;edgeStyle=orthogonalEdgeStyle;exitX=0.5;exitY=1;exitDx=0;exitDy=0;entryX=0.5;entryY=0;entryDx=0;entryDy=0;" parent="WIyWlLk6GJQsqaUBKTNV-1" source="WIyWlLk6GJQsqaUBKTNV-10" target="irWSJl4s53do8Npioh1H-24" edge="1">
          <mxGeometry y="10" relative="1" as="geometry">
            <mxPoint as="offset" />
            <mxPoint x="380" y="510" as="sourcePoint" />
            <mxPoint x="380" y="550" as="targetPoint" />
          </mxGeometry>
        </mxCell>
        <mxCell id="irWSJl4s53do8Npioh1H-29" value="0010" style="text;html=1;align=center;verticalAlign=middle;whiteSpace=wrap;rounded=0;" parent="WIyWlLk6GJQsqaUBKTNV-1" vertex="1">
          <mxGeometry x="300" y="540" width="60" height="30" as="geometry" />
        </mxCell>
        <mxCell id="irWSJl4s53do8Npioh1H-30" value="Increment PC" style="rounded=0;whiteSpace=wrap;html=1;fontSize=12;glass=0;strokeWidth=1;shadow=0;" parent="WIyWlLk6GJQsqaUBKTNV-1" vertex="1">
          <mxGeometry x="220" y="560" width="120" height="40" as="geometry" />
        </mxCell>
        <mxCell id="irWSJl4s53do8Npioh1H-31" value="" style="endArrow=block;html=1;rounded=0;exitX=0.5;exitY=1;exitDx=0;exitDy=0;entryX=0.5;entryY=0;entryDx=0;entryDy=0;endFill=0;endSize=8;" parent="WIyWlLk6GJQsqaUBKTNV-1" target="irWSJl4s53do8Npioh1H-30" edge="1">
          <mxGeometry width="50" height="50" relative="1" as="geometry">
            <mxPoint x="280" y="520" as="sourcePoint" />
            <mxPoint x="370" y="580" as="targetPoint" />
          </mxGeometry>
        </mxCell>
        <mxCell id="irWSJl4s53do8Npioh1H-32" value="&lt;font style=&quot;font-size: 10px;&quot;&gt;True&lt;/font&gt;" style="rhombus;whiteSpace=wrap;html=1;shadow=0;fontFamily=Helvetica;fontSize=12;align=center;strokeWidth=1;spacing=6;spacingTop=-4;" parent="WIyWlLk6GJQsqaUBKTNV-1" vertex="1">
          <mxGeometry x="230" y="600" width="100" height="40" as="geometry" />
        </mxCell>
        <mxCell id="irWSJl4s53do8Npioh1H-33" value="F2" style="text;html=1;align=center;verticalAlign=middle;whiteSpace=wrap;rounded=0;" parent="WIyWlLk6GJQsqaUBKTNV-1" vertex="1">
          <mxGeometry x="200" y="660" width="60" height="30" as="geometry" />
        </mxCell>
        <mxCell id="irWSJl4s53do8Npioh1H-34" value="&lt;font style=&quot;font-size: 10px;&quot;&gt;MUX=PC, ALU=A+1, PC(L)&lt;/font&gt;" style="rounded=1;whiteSpace=wrap;html=1;fontSize=12;glass=0;strokeWidth=1;shadow=0;" parent="WIyWlLk6GJQsqaUBKTNV-1" vertex="1">
          <mxGeometry x="220" y="680" width="120" height="40" as="geometry" />
        </mxCell>
        <mxCell id="irWSJl4s53do8Npioh1H-35" value="Yes" style="rounded=0;html=1;jettySize=auto;orthogonalLoop=1;fontSize=11;endArrow=block;endFill=0;endSize=8;strokeWidth=1;shadow=0;labelBackgroundColor=none;edgeStyle=orthogonalEdgeStyle;exitX=0.5;exitY=1;exitDx=0;exitDy=0;entryX=0.5;entryY=0;entryDx=0;entryDy=0;" parent="WIyWlLk6GJQsqaUBKTNV-1" target="irWSJl4s53do8Npioh1H-34" edge="1">
          <mxGeometry y="10" relative="1" as="geometry">
            <mxPoint as="offset" />
            <mxPoint x="280" y="640" as="sourcePoint" />
            <mxPoint x="380" y="750" as="targetPoint" />
          </mxGeometry>
        </mxCell>
        <mxCell id="irWSJl4s53do8Npioh1H-36" value="Prepare to read Operand" style="rounded=0;whiteSpace=wrap;html=1;fontSize=12;glass=0;strokeWidth=1;shadow=0;" parent="WIyWlLk6GJQsqaUBKTNV-1" vertex="1">
          <mxGeometry x="220" y="760" width="120" height="40" as="geometry" />
        </mxCell>
        <mxCell id="irWSJl4s53do8Npioh1H-37" value="Yes" style="edgeStyle=orthogonalEdgeStyle;rounded=0;html=1;jettySize=auto;orthogonalLoop=1;fontSize=11;endArrow=block;endFill=0;endSize=8;strokeWidth=1;shadow=0;labelBackgroundColor=none;" parent="WIyWlLk6GJQsqaUBKTNV-1" source="irWSJl4s53do8Npioh1H-38" target="irWSJl4s53do8Npioh1H-39" edge="1">
          <mxGeometry x="-0.6" y="10" relative="1" as="geometry">
            <mxPoint as="offset" />
          </mxGeometry>
        </mxCell>
        <mxCell id="irWSJl4s53do8Npioh1H-38" value="&lt;font style=&quot;font-size: 10px;&quot;&gt;ION&lt;/font&gt;" style="rhombus;whiteSpace=wrap;html=1;shadow=0;fontFamily=Helvetica;fontSize=12;align=center;strokeWidth=1;spacing=6;spacingTop=-4;" parent="WIyWlLk6GJQsqaUBKTNV-1" vertex="1">
          <mxGeometry x="230" y="800" width="100" height="40" as="geometry" />
        </mxCell>
        <mxCell id="irWSJl4s53do8Npioh1H-39" value="&lt;font style=&quot;font-size: 10px;&quot;&gt;MUX=PC, ALU=A, MA(L), READ, IE=True&lt;/font&gt;" style="rounded=1;whiteSpace=wrap;html=1;fontSize=12;glass=0;strokeWidth=1;shadow=0;" parent="WIyWlLk6GJQsqaUBKTNV-1" vertex="1">
          <mxGeometry x="380" y="800" width="120" height="40" as="geometry" />
        </mxCell>
        <mxCell id="irWSJl4s53do8Npioh1H-40" value="A3" style="text;html=1;align=center;verticalAlign=middle;whiteSpace=wrap;rounded=0;" parent="WIyWlLk6GJQsqaUBKTNV-1" vertex="1">
          <mxGeometry x="360" y="780" width="60" height="30" as="geometry" />
        </mxCell>
        <mxCell id="irWSJl4s53do8Npioh1H-41" value="0011" style="text;html=1;align=center;verticalAlign=middle;whiteSpace=wrap;rounded=0;" parent="WIyWlLk6GJQsqaUBKTNV-1" vertex="1">
          <mxGeometry x="300" y="740" width="60" height="30" as="geometry" />
        </mxCell>
        <mxCell id="irWSJl4s53do8Npioh1H-43" value="" style="endArrow=block;html=1;rounded=0;exitX=0.5;exitY=1;exitDx=0;exitDy=0;entryX=0.5;entryY=0;entryDx=0;entryDy=0;endFill=0;endSize=8;" parent="WIyWlLk6GJQsqaUBKTNV-1" source="irWSJl4s53do8Npioh1H-34" target="irWSJl4s53do8Npioh1H-36" edge="1">
          <mxGeometry width="50" height="50" relative="1" as="geometry">
            <mxPoint x="390" y="690" as="sourcePoint" />
            <mxPoint x="390" y="730" as="targetPoint" />
          </mxGeometry>
        </mxCell>
        <mxCell id="irWSJl4s53do8Npioh1H-44" value="" style="endArrow=block;html=1;rounded=0;exitX=1;exitY=0.5;exitDx=0;exitDy=0;endFill=0;endSize=8;" parent="WIyWlLk6GJQsqaUBKTNV-1" source="irWSJl4s53do8Npioh1H-39" edge="1">
          <mxGeometry width="50" height="50" relative="1" as="geometry">
            <mxPoint x="620" y="720" as="sourcePoint" />
            <mxPoint x="280" y="340" as="targetPoint" />
            <Array as="points">
              <mxPoint x="580" y="820" />
              <mxPoint x="580" y="340" />
            </Array>
          </mxGeometry>
        </mxCell>
        <mxCell id="irWSJl4s53do8Npioh1H-46" value="F3" style="text;html=1;align=center;verticalAlign=middle;whiteSpace=wrap;rounded=0;" parent="WIyWlLk6GJQsqaUBKTNV-1" vertex="1">
          <mxGeometry x="200" y="860" width="60" height="30" as="geometry" />
        </mxCell>
        <mxCell id="irWSJl4s53do8Npioh1H-47" value="&lt;font style=&quot;font-size: 10px;&quot;&gt;MUX=EA, ALU=A, MA(L)&lt;/font&gt;" style="rounded=1;whiteSpace=wrap;html=1;fontSize=12;glass=0;strokeWidth=1;shadow=0;" parent="WIyWlLk6GJQsqaUBKTNV-1" vertex="1">
          <mxGeometry x="220" y="880" width="120" height="40" as="geometry" />
        </mxCell>
        <mxCell id="irWSJl4s53do8Npioh1H-48" value="No" style="rounded=0;html=1;jettySize=auto;orthogonalLoop=1;fontSize=11;endArrow=block;endFill=0;endSize=8;strokeWidth=1;shadow=0;labelBackgroundColor=none;edgeStyle=orthogonalEdgeStyle;exitX=0.5;exitY=1;exitDx=0;exitDy=0;entryX=0.5;entryY=0;entryDx=0;entryDy=0;" parent="WIyWlLk6GJQsqaUBKTNV-1" target="irWSJl4s53do8Npioh1H-47" edge="1">
          <mxGeometry y="10" relative="1" as="geometry">
            <mxPoint as="offset" />
            <mxPoint x="280" y="840" as="sourcePoint" />
            <mxPoint x="380" y="950" as="targetPoint" />
          </mxGeometry>
        </mxCell>
        <mxCell id="irWSJl4s53do8Npioh1H-49" value="Read Operand" style="rounded=0;whiteSpace=wrap;html=1;fontSize=12;glass=0;strokeWidth=1;shadow=0;" parent="WIyWlLk6GJQsqaUBKTNV-1" vertex="1">
          <mxGeometry x="220" y="960" width="120" height="40" as="geometry" />
        </mxCell>
        <mxCell id="irWSJl4s53do8Npioh1H-50" value="0100" style="text;html=1;align=center;verticalAlign=middle;whiteSpace=wrap;rounded=0;" parent="WIyWlLk6GJQsqaUBKTNV-1" vertex="1">
          <mxGeometry x="300" y="940" width="60" height="30" as="geometry" />
        </mxCell>
        <mxCell id="irWSJl4s53do8Npioh1H-51" value="" style="endArrow=block;html=1;rounded=0;exitX=0.5;exitY=1;exitDx=0;exitDy=0;entryX=0.5;entryY=0;entryDx=0;entryDy=0;endFill=0;endSize=8;" parent="WIyWlLk6GJQsqaUBKTNV-1" source="irWSJl4s53do8Npioh1H-47" target="irWSJl4s53do8Npioh1H-49" edge="1">
          <mxGeometry width="50" height="50" relative="1" as="geometry">
            <mxPoint x="390" y="890" as="sourcePoint" />
            <mxPoint x="390" y="930" as="targetPoint" />
          </mxGeometry>
        </mxCell>
        <mxCell id="irWSJl4s53do8Npioh1H-52" value="Arm Interrupt always excluding next Instruction even if Interrupt is pending." style="text;html=1;align=left;verticalAlign=middle;whiteSpace=wrap;rounded=0;" parent="WIyWlLk6GJQsqaUBKTNV-1" vertex="1">
          <mxGeometry x="390" y="680" width="130" height="120" as="geometry" />
        </mxCell>
        <mxCell id="irWSJl4s53do8Npioh1H-53" value="Yes" style="edgeStyle=orthogonalEdgeStyle;rounded=0;html=1;jettySize=auto;orthogonalLoop=1;fontSize=11;endArrow=block;endFill=0;endSize=8;strokeWidth=1;shadow=0;labelBackgroundColor=none;" parent="WIyWlLk6GJQsqaUBKTNV-1" source="irWSJl4s53do8Npioh1H-54" edge="1">
          <mxGeometry x="-0.6" y="10" relative="1" as="geometry">
            <mxPoint as="offset" />
            <mxPoint x="380" y="1020" as="targetPoint" />
          </mxGeometry>
        </mxCell>
        <mxCell id="irWSJl4s53do8Npioh1H-54" value="&lt;p&gt;&lt;font&gt;DERxxx&lt;/font&gt;&lt;/p&gt;" style="rhombus;whiteSpace=wrap;html=1;shadow=0;fontFamily=Helvetica;fontSize=12;align=center;strokeWidth=1;spacing=6;spacingTop=-4;" parent="WIyWlLk6GJQsqaUBKTNV-1" vertex="1">
          <mxGeometry x="230" y="1000" width="100" height="40" as="geometry" />
        </mxCell>
        <mxCell id="irWSJl4s53do8Npioh1H-55" value="No" style="rounded=0;html=1;jettySize=auto;orthogonalLoop=1;fontSize=11;endArrow=block;endFill=0;endSize=8;strokeWidth=1;shadow=0;labelBackgroundColor=none;edgeStyle=orthogonalEdgeStyle;exitX=0.5;exitY=1;exitDx=0;exitDy=0;entryX=0.5;entryY=0;entryDx=0;entryDy=0;" parent="WIyWlLk6GJQsqaUBKTNV-1" target="irWSJl4s53do8Npioh1H-65" edge="1">
          <mxGeometry x="-0.9724" y="10" relative="1" as="geometry">
            <mxPoint as="offset" />
            <mxPoint x="280" y="1040" as="sourcePoint" />
            <mxPoint x="840" y="120" as="targetPoint" />
            <Array as="points">
              <mxPoint x="280" y="1080" />
              <mxPoint x="620" y="1080" />
              <mxPoint x="620" y="200" />
              <mxPoint x="720" y="200" />
            </Array>
          </mxGeometry>
        </mxCell>
        <mxCell id="irWSJl4s53do8Npioh1H-57" value="" style="rounded=1;whiteSpace=wrap;html=1;fontSize=12;glass=0;strokeWidth=1;shadow=0;" parent="WIyWlLk6GJQsqaUBKTNV-1" vertex="1">
          <mxGeometry x="380" y="1000" width="120" height="40" as="geometry" />
        </mxCell>
        <mxCell id="irWSJl4s53do8Npioh1H-58" value="A4" style="text;html=1;align=center;verticalAlign=middle;whiteSpace=wrap;rounded=0;" parent="WIyWlLk6GJQsqaUBKTNV-1" vertex="1">
          <mxGeometry x="360" y="980" width="60" height="30" as="geometry" />
        </mxCell>
        <mxCell id="irWSJl4s53do8Npioh1H-60" value="" style="ellipse;whiteSpace=wrap;html=1;aspect=fixed;" parent="WIyWlLk6GJQsqaUBKTNV-1" vertex="1">
          <mxGeometry x="540" y="1000" width="40" height="40" as="geometry" />
        </mxCell>
        <mxCell id="irWSJl4s53do8Npioh1H-61" value="Exec" style="text;html=1;align=center;verticalAlign=middle;whiteSpace=wrap;rounded=0;" parent="WIyWlLk6GJQsqaUBKTNV-1" vertex="1">
          <mxGeometry x="530" y="1005" width="60" height="30" as="geometry" />
        </mxCell>
        <mxCell id="irWSJl4s53do8Npioh1H-62" value="" style="endArrow=block;html=1;rounded=0;exitX=1;exitY=0.5;exitDx=0;exitDy=0;endFill=0;endSize=8;" parent="WIyWlLk6GJQsqaUBKTNV-1" edge="1">
          <mxGeometry width="50" height="50" relative="1" as="geometry">
            <mxPoint x="500" y="1020" as="sourcePoint" />
            <mxPoint x="540" y="1020" as="targetPoint" />
          </mxGeometry>
        </mxCell>
        <mxCell id="irWSJl4s53do8Npioh1H-63" value="Take early exit if Instruction doesn&#39;t need indirect Operand (direct Jumps, IOT, Micro. Instructions or direct DCA)." style="text;html=1;align=left;verticalAlign=middle;whiteSpace=wrap;rounded=0;" parent="WIyWlLk6GJQsqaUBKTNV-1" vertex="1">
          <mxGeometry x="390" y="870" width="130" height="120" as="geometry" />
        </mxCell>
        <mxCell id="irWSJl4s53do8Npioh1H-64" value="F4" style="text;html=1;align=center;verticalAlign=middle;whiteSpace=wrap;rounded=0;" parent="WIyWlLk6GJQsqaUBKTNV-1" vertex="1">
          <mxGeometry x="640" y="260" width="60" height="30" as="geometry" />
        </mxCell>
        <mxCell id="irWSJl4s53do8Npioh1H-65" value="&lt;font style=&quot;font-size: 10px;&quot;&gt;READ&lt;/font&gt;" style="rounded=1;whiteSpace=wrap;html=1;fontSize=12;glass=0;strokeWidth=1;shadow=0;" parent="WIyWlLk6GJQsqaUBKTNV-1" vertex="1">
          <mxGeometry x="660" y="280" width="120" height="40" as="geometry" />
        </mxCell>
        <mxCell id="irWSJl4s53do8Npioh1H-66" value="&lt;font style=&quot;font-size: 10px;&quot;&gt;CYCOMP&lt;/font&gt;" style="rhombus;whiteSpace=wrap;html=1;shadow=0;fontFamily=Helvetica;fontSize=12;align=center;strokeWidth=1;spacing=6;spacingTop=-4;" parent="WIyWlLk6GJQsqaUBKTNV-1" vertex="1">
          <mxGeometry x="670" y="400" width="100" height="40" as="geometry" />
        </mxCell>
        <mxCell id="irWSJl4s53do8Npioh1H-67" value="0101" style="text;html=1;align=center;verticalAlign=middle;whiteSpace=wrap;rounded=0;" parent="WIyWlLk6GJQsqaUBKTNV-1" vertex="1">
          <mxGeometry x="740" y="340" width="60" height="30" as="geometry" />
        </mxCell>
        <mxCell id="irWSJl4s53do8Npioh1H-68" value="Operand -&amp;gt; MB" style="rounded=0;whiteSpace=wrap;html=1;fontSize=12;glass=0;strokeWidth=1;shadow=0;" parent="WIyWlLk6GJQsqaUBKTNV-1" vertex="1">
          <mxGeometry x="660" y="360" width="120" height="40" as="geometry" />
        </mxCell>
        <mxCell id="irWSJl4s53do8Npioh1H-69" value="" style="endArrow=block;html=1;rounded=0;exitX=0.5;exitY=1;exitDx=0;exitDy=0;entryX=0.5;entryY=0;entryDx=0;entryDy=0;endFill=0;endSize=8;" parent="WIyWlLk6GJQsqaUBKTNV-1" source="irWSJl4s53do8Npioh1H-65" target="irWSJl4s53do8Npioh1H-68" edge="1">
          <mxGeometry width="50" height="50" relative="1" as="geometry">
            <mxPoint x="810" y="440" as="sourcePoint" />
            <mxPoint x="810" y="480" as="targetPoint" />
          </mxGeometry>
        </mxCell>
        <mxCell id="irWSJl4s53do8Npioh1H-70" value="&lt;font style=&quot;font-size: 10px;&quot;&gt;MUX=M, ALU=A, MB(L)&lt;/font&gt;" style="rounded=1;whiteSpace=wrap;html=1;fontSize=12;glass=0;strokeWidth=1;shadow=0;" parent="WIyWlLk6GJQsqaUBKTNV-1" vertex="1">
          <mxGeometry x="660" y="480" width="120" height="40" as="geometry" />
        </mxCell>
        <mxCell id="irWSJl4s53do8Npioh1H-71" value="Yes" style="rounded=0;html=1;jettySize=auto;orthogonalLoop=1;fontSize=11;endArrow=block;endFill=0;endSize=8;strokeWidth=1;shadow=0;labelBackgroundColor=none;edgeStyle=orthogonalEdgeStyle;exitX=0.5;exitY=1;exitDx=0;exitDy=0;entryX=0.5;entryY=0;entryDx=0;entryDy=0;" parent="WIyWlLk6GJQsqaUBKTNV-1" source="irWSJl4s53do8Npioh1H-66" target="irWSJl4s53do8Npioh1H-70" edge="1">
          <mxGeometry y="10" relative="1" as="geometry">
            <mxPoint as="offset" />
            <mxPoint x="780" y="430" as="sourcePoint" />
            <mxPoint x="780" y="470" as="targetPoint" />
          </mxGeometry>
        </mxCell>
        <mxCell id="irWSJl4s53do8Npioh1H-72" value="F5" style="text;html=1;align=center;verticalAlign=middle;whiteSpace=wrap;rounded=0;" parent="WIyWlLk6GJQsqaUBKTNV-1" vertex="1">
          <mxGeometry x="640" y="460" width="60" height="30" as="geometry" />
        </mxCell>
        <mxCell id="irWSJl4s53do8Npioh1H-73" value="&lt;font style=&quot;font-size: 10px;&quot;&gt;IR3&lt;/font&gt;" style="rhombus;whiteSpace=wrap;html=1;shadow=0;fontFamily=Helvetica;fontSize=12;align=center;strokeWidth=1;spacing=6;spacingTop=-4;" parent="WIyWlLk6GJQsqaUBKTNV-1" vertex="1">
          <mxGeometry x="670" y="600" width="100" height="40" as="geometry" />
        </mxCell>
        <mxCell id="irWSJl4s53do8Npioh1H-74" value="Process indirect" style="rounded=0;whiteSpace=wrap;html=1;fontSize=12;glass=0;strokeWidth=1;shadow=0;" parent="WIyWlLk6GJQsqaUBKTNV-1" vertex="1">
          <mxGeometry x="660" y="560" width="120" height="40" as="geometry" />
        </mxCell>
        <mxCell id="irWSJl4s53do8Npioh1H-75" value="Yes" style="rounded=0;html=1;jettySize=auto;orthogonalLoop=1;fontSize=11;endArrow=block;endFill=0;endSize=8;strokeWidth=1;shadow=0;labelBackgroundColor=none;edgeStyle=orthogonalEdgeStyle;exitX=0.5;exitY=1;exitDx=0;exitDy=0;" parent="WIyWlLk6GJQsqaUBKTNV-1" source="irWSJl4s53do8Npioh1H-73" edge="1">
          <mxGeometry x="0.0122" y="10" relative="1" as="geometry">
            <mxPoint y="-1" as="offset" />
            <mxPoint x="820" y="710" as="sourcePoint" />
            <mxPoint x="720" y="680" as="targetPoint" />
          </mxGeometry>
        </mxCell>
        <mxCell id="irWSJl4s53do8Npioh1H-76" value="" style="endArrow=block;html=1;rounded=0;exitX=0.5;exitY=1;exitDx=0;exitDy=0;endFill=0;endSize=8;" parent="WIyWlLk6GJQsqaUBKTNV-1" source="irWSJl4s53do8Npioh1H-70" edge="1">
          <mxGeometry width="50" height="50" relative="1" as="geometry">
            <mxPoint x="720" y="530" as="sourcePoint" />
            <mxPoint x="720" y="560" as="targetPoint" />
          </mxGeometry>
        </mxCell>
        <mxCell id="irWSJl4s53do8Npioh1H-77" value="0110" style="text;html=1;align=center;verticalAlign=middle;whiteSpace=wrap;rounded=0;" parent="WIyWlLk6GJQsqaUBKTNV-1" vertex="1">
          <mxGeometry x="740" y="540" width="60" height="30" as="geometry" />
        </mxCell>
        <mxCell id="irWSJl4s53do8Npioh1H-78" value="No" style="edgeStyle=orthogonalEdgeStyle;rounded=0;html=1;jettySize=auto;orthogonalLoop=1;fontSize=11;endArrow=block;endFill=0;endSize=8;strokeWidth=1;shadow=0;labelBackgroundColor=none;" parent="WIyWlLk6GJQsqaUBKTNV-1" edge="1">
          <mxGeometry x="-0.6" y="10" relative="1" as="geometry">
            <mxPoint as="offset" />
            <mxPoint x="820" y="620" as="targetPoint" />
            <mxPoint x="770" y="620" as="sourcePoint" />
          </mxGeometry>
        </mxCell>
        <mxCell id="irWSJl4s53do8Npioh1H-79" value="" style="rounded=1;whiteSpace=wrap;html=1;fontSize=12;glass=0;strokeWidth=1;shadow=0;" parent="WIyWlLk6GJQsqaUBKTNV-1" vertex="1">
          <mxGeometry x="820" y="600" width="120" height="40" as="geometry" />
        </mxCell>
        <mxCell id="irWSJl4s53do8Npioh1H-80" value="Exec" style="text;html=1;align=center;verticalAlign=middle;whiteSpace=wrap;rounded=0;" parent="WIyWlLk6GJQsqaUBKTNV-1" vertex="1">
          <mxGeometry x="970" y="605" width="60" height="30" as="geometry" />
        </mxCell>
        <mxCell id="irWSJl4s53do8Npioh1H-81" value="" style="endArrow=block;html=1;rounded=0;exitX=1;exitY=0.5;exitDx=0;exitDy=0;endFill=0;endSize=8;" parent="WIyWlLk6GJQsqaUBKTNV-1" edge="1">
          <mxGeometry width="50" height="50" relative="1" as="geometry">
            <mxPoint x="940" y="620" as="sourcePoint" />
            <mxPoint x="980" y="620" as="targetPoint" />
          </mxGeometry>
        </mxCell>
        <mxCell id="irWSJl4s53do8Npioh1H-82" value="A6" style="text;html=1;align=center;verticalAlign=middle;whiteSpace=wrap;rounded=0;" parent="WIyWlLk6GJQsqaUBKTNV-1" vertex="1">
          <mxGeometry x="800" y="575" width="60" height="30" as="geometry" />
        </mxCell>
        <mxCell id="irWSJl4s53do8Npioh1H-84" value="All other direct Instructions" style="text;html=1;align=left;verticalAlign=middle;whiteSpace=wrap;rounded=0;" parent="WIyWlLk6GJQsqaUBKTNV-1" vertex="1">
          <mxGeometry x="960" y="515" width="130" height="120" as="geometry" />
        </mxCell>
        <mxCell id="irWSJl4s53do8Npioh1H-86" value="&lt;font style=&quot;font-size: 10px;&quot;&gt;MA=001x&lt;/font&gt;" style="rhombus;whiteSpace=wrap;html=1;shadow=0;fontFamily=Helvetica;fontSize=12;align=center;strokeWidth=1;spacing=6;spacingTop=-4;" parent="WIyWlLk6GJQsqaUBKTNV-1" vertex="1">
          <mxGeometry x="670" y="720" width="100" height="40" as="geometry" />
        </mxCell>
        <mxCell id="irWSJl4s53do8Npioh1H-87" value="Auto Index Register" style="rounded=0;whiteSpace=wrap;html=1;fontSize=12;glass=0;strokeWidth=1;shadow=0;" parent="WIyWlLk6GJQsqaUBKTNV-1" vertex="1">
          <mxGeometry x="660" y="680" width="120" height="40" as="geometry" />
        </mxCell>
        <mxCell id="irWSJl4s53do8Npioh1H-88" value="Yes" style="rounded=0;html=1;jettySize=auto;orthogonalLoop=1;fontSize=11;endArrow=block;endFill=0;endSize=8;strokeWidth=1;shadow=0;labelBackgroundColor=none;edgeStyle=orthogonalEdgeStyle;exitX=0.5;exitY=1;exitDx=0;exitDy=0;" parent="WIyWlLk6GJQsqaUBKTNV-1" source="irWSJl4s53do8Npioh1H-86" edge="1">
          <mxGeometry x="0.0122" y="10" relative="1" as="geometry">
            <mxPoint y="-1" as="offset" />
            <mxPoint x="820" y="830" as="sourcePoint" />
            <mxPoint x="720" y="800" as="targetPoint" />
          </mxGeometry>
        </mxCell>
        <mxCell id="irWSJl4s53do8Npioh1H-89" value="0111" style="text;html=1;align=center;verticalAlign=middle;whiteSpace=wrap;rounded=0;" parent="WIyWlLk6GJQsqaUBKTNV-1" vertex="1">
          <mxGeometry x="740" y="660" width="60" height="30" as="geometry" />
        </mxCell>
        <mxCell id="irWSJl4s53do8Npioh1H-90" value="No" style="edgeStyle=orthogonalEdgeStyle;rounded=0;html=1;jettySize=auto;orthogonalLoop=1;fontSize=11;endArrow=block;endFill=0;endSize=8;strokeWidth=1;shadow=0;labelBackgroundColor=none;" parent="WIyWlLk6GJQsqaUBKTNV-1" edge="1">
          <mxGeometry x="-0.9259" y="10" relative="1" as="geometry">
            <mxPoint as="offset" />
            <mxPoint x="720" y="860" as="targetPoint" />
            <mxPoint x="770" y="740" as="sourcePoint" />
            <Array as="points">
              <mxPoint x="820" y="740" />
            </Array>
          </mxGeometry>
        </mxCell>
        <mxCell id="irWSJl4s53do8Npioh1H-96" value="&lt;font style=&quot;font-size: 10px;&quot;&gt;MUX=MB, ALU=A+1, MB(L), WRITE&lt;/font&gt;" style="rounded=1;whiteSpace=wrap;html=1;fontSize=12;glass=0;strokeWidth=1;shadow=0;" parent="WIyWlLk6GJQsqaUBKTNV-1" vertex="1">
          <mxGeometry x="660" y="800" width="120" height="40" as="geometry" />
        </mxCell>
        <mxCell id="irWSJl4s53do8Npioh1H-97" value="F7" style="text;html=1;align=center;verticalAlign=middle;whiteSpace=wrap;rounded=0;" parent="WIyWlLk6GJQsqaUBKTNV-1" vertex="1">
          <mxGeometry x="640" y="780" width="60" height="30" as="geometry" />
        </mxCell>
        <mxCell id="irWSJl4s53do8Npioh1H-98" value="&lt;font style=&quot;font-size: 10px;&quot;&gt;CYCOMP&lt;/font&gt;" style="rhombus;whiteSpace=wrap;html=1;shadow=0;fontFamily=Helvetica;fontSize=12;align=center;strokeWidth=1;spacing=6;spacingTop=-4;" parent="WIyWlLk6GJQsqaUBKTNV-1" vertex="1">
          <mxGeometry x="670" y="920" width="100" height="40" as="geometry" />
        </mxCell>
        <mxCell id="irWSJl4s53do8Npioh1H-99" value="1000" style="text;html=1;align=center;verticalAlign=middle;whiteSpace=wrap;rounded=0;" parent="WIyWlLk6GJQsqaUBKTNV-1" vertex="1">
          <mxGeometry x="740" y="860" width="60" height="30" as="geometry" />
        </mxCell>
        <mxCell id="irWSJl4s53do8Npioh1H-100" value="Get effective Adress" style="rounded=0;whiteSpace=wrap;html=1;fontSize=12;glass=0;strokeWidth=1;shadow=0;" parent="WIyWlLk6GJQsqaUBKTNV-1" vertex="1">
          <mxGeometry x="660" y="880" width="120" height="40" as="geometry" />
        </mxCell>
        <mxCell id="irWSJl4s53do8Npioh1H-101" value="" style="endArrow=block;html=1;rounded=0;exitX=0.5;exitY=1;exitDx=0;exitDy=0;entryX=0.5;entryY=0;entryDx=0;entryDy=0;endFill=0;endSize=8;" parent="WIyWlLk6GJQsqaUBKTNV-1" target="irWSJl4s53do8Npioh1H-100" edge="1">
          <mxGeometry width="50" height="50" relative="1" as="geometry">
            <mxPoint x="720" y="840" as="sourcePoint" />
            <mxPoint x="810" y="1000" as="targetPoint" />
          </mxGeometry>
        </mxCell>
        <mxCell id="irWSJl4s53do8Npioh1H-102" value="Yes" style="rounded=0;html=1;jettySize=auto;orthogonalLoop=1;fontSize=11;endArrow=block;endFill=0;endSize=8;strokeWidth=1;shadow=0;labelBackgroundColor=none;edgeStyle=orthogonalEdgeStyle;exitX=0.5;exitY=1;exitDx=0;exitDy=0;" parent="WIyWlLk6GJQsqaUBKTNV-1" source="irWSJl4s53do8Npioh1H-98" target="irWSJl4s53do8Npioh1H-104" edge="1">
          <mxGeometry x="-0.9735" y="10" relative="1" as="geometry">
            <mxPoint as="offset" />
            <mxPoint x="790" y="950" as="sourcePoint" />
            <mxPoint x="1170" y="200" as="targetPoint" />
            <Array as="points">
              <mxPoint x="720" y="1080" />
              <mxPoint x="1060" y="1080" />
              <mxPoint x="1060" y="200" />
              <mxPoint x="1160" y="200" />
            </Array>
          </mxGeometry>
        </mxCell>
        <mxCell id="irWSJl4s53do8Npioh1H-103" value="" style="ellipse;whiteSpace=wrap;html=1;aspect=fixed;" parent="WIyWlLk6GJQsqaUBKTNV-1" vertex="1">
          <mxGeometry x="1420" y="400" width="40" height="40" as="geometry" />
        </mxCell>
        <mxCell id="irWSJl4s53do8Npioh1H-104" value="&lt;font style=&quot;font-size: 10px;&quot;&gt;MUX=MB, ALU=A, MA(L)&lt;/font&gt;" style="rounded=1;whiteSpace=wrap;html=1;fontSize=12;glass=0;strokeWidth=1;shadow=0;" parent="WIyWlLk6GJQsqaUBKTNV-1" vertex="1">
          <mxGeometry x="1100" y="280" width="120" height="40" as="geometry" />
        </mxCell>
        <mxCell id="irWSJl4s53do8Npioh1H-105" value="F8" style="text;html=1;align=center;verticalAlign=middle;whiteSpace=wrap;rounded=0;" parent="WIyWlLk6GJQsqaUBKTNV-1" vertex="1">
          <mxGeometry x="1080" y="260" width="60" height="30" as="geometry" />
        </mxCell>
        <mxCell id="irWSJl4s53do8Npioh1H-106" value="&lt;font style=&quot;font-size: 9px;&quot;&gt;DCA+JMP+JMS&lt;/font&gt;" style="rhombus;whiteSpace=wrap;html=1;shadow=0;fontFamily=Helvetica;fontSize=12;align=center;strokeWidth=1;spacing=6;spacingTop=-4;" parent="WIyWlLk6GJQsqaUBKTNV-1" vertex="1">
          <mxGeometry x="1110" y="400" width="100" height="40" as="geometry" />
        </mxCell>
        <mxCell id="irWSJl4s53do8Npioh1H-107" value="Read Operand" style="rounded=0;whiteSpace=wrap;html=1;fontSize=12;glass=0;strokeWidth=1;shadow=0;" parent="WIyWlLk6GJQsqaUBKTNV-1" vertex="1">
          <mxGeometry x="1100" y="360" width="120" height="40" as="geometry" />
        </mxCell>
        <mxCell id="irWSJl4s53do8Npioh1H-108" value="No" style="rounded=0;html=1;jettySize=auto;orthogonalLoop=1;fontSize=11;endArrow=block;endFill=0;endSize=8;strokeWidth=1;shadow=0;labelBackgroundColor=none;edgeStyle=orthogonalEdgeStyle;exitX=0.5;exitY=1;exitDx=0;exitDy=0;" parent="WIyWlLk6GJQsqaUBKTNV-1" source="irWSJl4s53do8Npioh1H-106" edge="1">
          <mxGeometry x="0.0122" y="10" relative="1" as="geometry">
            <mxPoint y="-1" as="offset" />
            <mxPoint x="1260" y="510" as="sourcePoint" />
            <mxPoint x="1160" y="480" as="targetPoint" />
          </mxGeometry>
        </mxCell>
        <mxCell id="irWSJl4s53do8Npioh1H-109" value="" style="endArrow=block;html=1;rounded=0;exitX=0.5;exitY=1;exitDx=0;exitDy=0;endFill=0;endSize=8;" parent="WIyWlLk6GJQsqaUBKTNV-1" source="irWSJl4s53do8Npioh1H-104" edge="1">
          <mxGeometry width="50" height="50" relative="1" as="geometry">
            <mxPoint x="1160" y="330" as="sourcePoint" />
            <mxPoint x="1160" y="360" as="targetPoint" />
          </mxGeometry>
        </mxCell>
        <mxCell id="irWSJl4s53do8Npioh1H-110" value="1001" style="text;html=1;align=center;verticalAlign=middle;whiteSpace=wrap;rounded=0;" parent="WIyWlLk6GJQsqaUBKTNV-1" vertex="1">
          <mxGeometry x="1180" y="340" width="60" height="30" as="geometry" />
        </mxCell>
        <mxCell id="irWSJl4s53do8Npioh1H-111" value="Yes" style="edgeStyle=orthogonalEdgeStyle;rounded=0;html=1;jettySize=auto;orthogonalLoop=1;fontSize=11;endArrow=block;endFill=0;endSize=8;strokeWidth=1;shadow=0;labelBackgroundColor=none;" parent="WIyWlLk6GJQsqaUBKTNV-1" edge="1">
          <mxGeometry x="-0.6" y="10" relative="1" as="geometry">
            <mxPoint as="offset" />
            <mxPoint x="1260" y="420" as="targetPoint" />
            <mxPoint x="1210" y="420" as="sourcePoint" />
          </mxGeometry>
        </mxCell>
        <mxCell id="irWSJl4s53do8Npioh1H-112" value="" style="rounded=1;whiteSpace=wrap;html=1;fontSize=12;glass=0;strokeWidth=1;shadow=0;" parent="WIyWlLk6GJQsqaUBKTNV-1" vertex="1">
          <mxGeometry x="1260" y="400" width="120" height="40" as="geometry" />
        </mxCell>
        <mxCell id="irWSJl4s53do8Npioh1H-113" value="Exec" style="text;html=1;align=center;verticalAlign=middle;whiteSpace=wrap;rounded=0;" parent="WIyWlLk6GJQsqaUBKTNV-1" vertex="1">
          <mxGeometry x="1410" y="405" width="60" height="30" as="geometry" />
        </mxCell>
        <mxCell id="irWSJl4s53do8Npioh1H-114" value="" style="endArrow=block;html=1;rounded=0;exitX=1;exitY=0.5;exitDx=0;exitDy=0;endFill=0;endSize=8;" parent="WIyWlLk6GJQsqaUBKTNV-1" edge="1">
          <mxGeometry width="50" height="50" relative="1" as="geometry">
            <mxPoint x="1380" y="420" as="sourcePoint" />
            <mxPoint x="1420" y="420" as="targetPoint" />
          </mxGeometry>
        </mxCell>
        <mxCell id="irWSJl4s53do8Npioh1H-115" value="A9" style="text;html=1;align=center;verticalAlign=middle;whiteSpace=wrap;rounded=0;" parent="WIyWlLk6GJQsqaUBKTNV-1" vertex="1">
          <mxGeometry x="1240" y="375" width="60" height="30" as="geometry" />
        </mxCell>
        <mxCell id="irWSJl4s53do8Npioh1H-117" value="Early exit, no Operand needed (indirect Jumps + DCA)" style="text;html=1;align=left;verticalAlign=middle;whiteSpace=wrap;rounded=0;" parent="WIyWlLk6GJQsqaUBKTNV-1" vertex="1">
          <mxGeometry x="1350" y="315" width="130" height="120" as="geometry" />
        </mxCell>
        <mxCell id="irWSJl4s53do8Npioh1H-118" value="F9" style="text;html=1;align=center;verticalAlign=middle;whiteSpace=wrap;rounded=0;" parent="WIyWlLk6GJQsqaUBKTNV-1" vertex="1">
          <mxGeometry x="1080" y="460" width="60" height="30" as="geometry" />
        </mxCell>
        <mxCell id="irWSJl4s53do8Npioh1H-119" value="&lt;font style=&quot;font-size: 10px;&quot;&gt;READ&lt;/font&gt;" style="rounded=1;whiteSpace=wrap;html=1;fontSize=12;glass=0;strokeWidth=1;shadow=0;" parent="WIyWlLk6GJQsqaUBKTNV-1" vertex="1">
          <mxGeometry x="1100" y="480" width="120" height="40" as="geometry" />
        </mxCell>
        <mxCell id="irWSJl4s53do8Npioh1H-120" value="&lt;font style=&quot;font-size: 10px;&quot;&gt;CYCOMP&lt;/font&gt;" style="rhombus;whiteSpace=wrap;html=1;shadow=0;fontFamily=Helvetica;fontSize=12;align=center;strokeWidth=1;spacing=6;spacingTop=-4;" parent="WIyWlLk6GJQsqaUBKTNV-1" vertex="1">
          <mxGeometry x="1110" y="600" width="100" height="40" as="geometry" />
        </mxCell>
        <mxCell id="irWSJl4s53do8Npioh1H-121" value="1010" style="text;html=1;align=center;verticalAlign=middle;whiteSpace=wrap;rounded=0;" parent="WIyWlLk6GJQsqaUBKTNV-1" vertex="1">
          <mxGeometry x="1180" y="540" width="60" height="30" as="geometry" />
        </mxCell>
        <mxCell id="irWSJl4s53do8Npioh1H-122" value="Operand -&amp;gt; MB" style="rounded=0;whiteSpace=wrap;html=1;fontSize=12;glass=0;strokeWidth=1;shadow=0;" parent="WIyWlLk6GJQsqaUBKTNV-1" vertex="1">
          <mxGeometry x="1100" y="560" width="120" height="40" as="geometry" />
        </mxCell>
        <mxCell id="irWSJl4s53do8Npioh1H-123" value="" style="endArrow=block;html=1;rounded=0;exitX=0.5;exitY=1;exitDx=0;exitDy=0;entryX=0.5;entryY=0;entryDx=0;entryDy=0;endFill=0;endSize=8;" parent="WIyWlLk6GJQsqaUBKTNV-1" source="irWSJl4s53do8Npioh1H-119" target="irWSJl4s53do8Npioh1H-122" edge="1">
          <mxGeometry width="50" height="50" relative="1" as="geometry">
            <mxPoint x="1250" y="640" as="sourcePoint" />
            <mxPoint x="1250" y="680" as="targetPoint" />
          </mxGeometry>
        </mxCell>
        <mxCell id="irWSJl4s53do8Npioh1H-124" value="Yes" style="rounded=0;html=1;jettySize=auto;orthogonalLoop=1;fontSize=11;endArrow=block;endFill=0;endSize=8;strokeWidth=1;shadow=0;labelBackgroundColor=none;edgeStyle=orthogonalEdgeStyle;exitX=0.5;exitY=1;exitDx=0;exitDy=0;entryX=0.5;entryY=0;entryDx=0;entryDy=0;" parent="WIyWlLk6GJQsqaUBKTNV-1" source="irWSJl4s53do8Npioh1H-120" edge="1">
          <mxGeometry y="10" relative="1" as="geometry">
            <mxPoint as="offset" />
            <mxPoint x="1220" y="630" as="sourcePoint" />
            <mxPoint x="1160" y="680" as="targetPoint" />
          </mxGeometry>
        </mxCell>
        <mxCell id="irWSJl4s53do8Npioh1H-125" value="&lt;font style=&quot;font-size: 10px;&quot;&gt;MUX=M, ALU=A, MB(L)&lt;/font&gt;" style="rounded=1;whiteSpace=wrap;html=1;fontSize=12;glass=0;strokeWidth=1;shadow=0;" parent="WIyWlLk6GJQsqaUBKTNV-1" vertex="1">
          <mxGeometry x="1100" y="680" width="120" height="40" as="geometry" />
        </mxCell>
        <mxCell id="irWSJl4s53do8Npioh1H-126" value="F10" style="text;html=1;align=center;verticalAlign=middle;whiteSpace=wrap;rounded=0;" parent="WIyWlLk6GJQsqaUBKTNV-1" vertex="1">
          <mxGeometry x="1080" y="660" width="60" height="30" as="geometry" />
        </mxCell>
        <mxCell id="irWSJl4s53do8Npioh1H-129" value="" style="endArrow=block;html=1;rounded=0;exitX=1;exitY=0.5;exitDx=0;exitDy=0;endFill=0;endSize=8;entryX=0;entryY=0.5;entryDx=0;entryDy=0;" parent="WIyWlLk6GJQsqaUBKTNV-1" source="irWSJl4s53do8Npioh1H-125" target="irWSJl4s53do8Npioh1H-127" edge="1">
          <mxGeometry width="50" height="50" relative="1" as="geometry">
            <mxPoint x="1380" y="695" as="sourcePoint" />
            <mxPoint x="1420" y="695" as="targetPoint" />
          </mxGeometry>
        </mxCell>
        <mxCell id="irWSJl4s53do8Npioh1H-131" value="Autoindex" style="text;html=1;align=center;verticalAlign=middle;whiteSpace=wrap;rounded=0;" parent="WIyWlLk6GJQsqaUBKTNV-1" vertex="1">
          <mxGeometry x="730" y="750" width="80" height="30" as="geometry" />
        </mxCell>
      </root>
    </mxGraphModel>
  </diagram>
</mxfile>
